<mxfile host="65bd71144e">
    <diagram id="TY2ji9zwoc-1wQC9up7U" name="Before Login">
        <mxGraphModel dx="1744" dy="807" grid="1" gridSize="10" guides="1" tooltips="1" connect="1" arrows="1" fold="1" page="1" pageScale="1" pageWidth="827" pageHeight="1169" math="0" shadow="0">
            <root>
                <mxCell id="0"/>
                <mxCell id="1" parent="0"/>
                <mxCell id="2" value="" style="rounded=0;whiteSpace=wrap;html=1;" vertex="1" parent="1">
                    <mxGeometry x="100" y="160" width="200" height="520" as="geometry"/>
                </mxCell>
                <mxCell id="3" value="" style="rounded=0;whiteSpace=wrap;html=1;" vertex="1" parent="1">
                    <mxGeometry x="40" y="160" width="60" height="520" as="geometry"/>
                </mxCell>
                <mxCell id="4" value="" style="rounded=0;whiteSpace=wrap;html=1;" vertex="1" parent="1">
                    <mxGeometry x="300" y="540" width="510" height="140" as="geometry"/>
                </mxCell>
                <mxCell id="6" value="" style="rounded=0;whiteSpace=wrap;html=1;" vertex="1" parent="1">
                    <mxGeometry x="300" y="160" width="510" height="380" as="geometry"/>
                </mxCell>
                <mxCell id="7" value="" style="rounded=0;whiteSpace=wrap;html=1;" vertex="1" parent="1">
                    <mxGeometry x="40" y="130" width="770" height="30" as="geometry"/>
                </mxCell>
                <mxCell id="8" value="" style="rounded=0;whiteSpace=wrap;html=1;" vertex="1" parent="1">
                    <mxGeometry x="40" y="680" width="770" height="30" as="geometry"/>
                </mxCell>
                <mxCell id="9" value="" style="rounded=0;whiteSpace=wrap;html=1;strokeColor=default;" vertex="1" parent="1">
                    <mxGeometry x="300" y="160" width="90" height="30" as="geometry"/>
                </mxCell>
                <mxCell id="12" value="" style="rounded=0;whiteSpace=wrap;html=1;" vertex="1" parent="1">
                    <mxGeometry x="390" y="160" width="90" height="30" as="geometry"/>
                </mxCell>
                <mxCell id="13" value="" style="rounded=0;whiteSpace=wrap;html=1;" vertex="1" parent="1">
                    <mxGeometry x="480" y="160" width="90" height="30" as="geometry"/>
                </mxCell>
                <mxCell id="14" value="" style="rounded=0;whiteSpace=wrap;html=1;" vertex="1" parent="1">
                    <mxGeometry x="570" y="160" width="240" height="30" as="geometry"/>
                </mxCell>
                <mxCell id="15" value="" style="ellipse;whiteSpace=wrap;html=1;aspect=fixed;strokeColor=default;" vertex="1" parent="1">
                    <mxGeometry x="50" y="170" width="40" height="40" as="geometry"/>
                </mxCell>
                <mxCell id="16" value="" style="ellipse;whiteSpace=wrap;html=1;aspect=fixed;strokeColor=default;" vertex="1" parent="1">
                    <mxGeometry x="50" y="230" width="40" height="40" as="geometry"/>
                </mxCell>
                <mxCell id="17" value="" style="ellipse;whiteSpace=wrap;html=1;aspect=fixed;strokeColor=default;" vertex="1" parent="1">
                    <mxGeometry x="50" y="290" width="40" height="40" as="geometry"/>
                </mxCell>
                <mxCell id="18" value="" style="ellipse;whiteSpace=wrap;html=1;aspect=fixed;strokeColor=default;" vertex="1" parent="1">
                    <mxGeometry x="50" y="350" width="40" height="40" as="geometry"/>
                </mxCell>
                <mxCell id="19" value="&amp;nbsp; △&amp;nbsp; PROFILE" style="rounded=0;whiteSpace=wrap;html=1;strokeColor=default;align=left;" vertex="1" parent="1">
                    <mxGeometry x="100" y="160" width="200" height="30" as="geometry"/>
                </mxCell>
                <mxCell id="20" value="" style="rounded=0;whiteSpace=wrap;html=1;strokeColor=default;" vertex="1" parent="1">
                    <mxGeometry x="100" y="190" width="200" height="490" as="geometry"/>
                </mxCell>
                <mxCell id="22" value="Login" style="rounded=0;whiteSpace=wrap;html=1;strokeColor=#006EAF;fillColor=#1ba1e2;fontColor=#ffffff;" vertex="1" parent="1">
                    <mxGeometry x="127.5" y="260" width="145" height="30" as="geometry"/>
                </mxCell>
                <mxCell id="7uzm0SndYFBvBvAtwjh_-22" value="To use LeetUp, please login with your leetcode account." style="text;html=1;strokeColor=none;fillColor=none;align=center;verticalAlign=middle;whiteSpace=wrap;rounded=0;" vertex="1" parent="1">
                    <mxGeometry x="120" y="207" width="160" height="40" as="geometry"/>
                </mxCell>
                <mxCell id="450Dw_5dYKxRIdOj_0fy-22" value="" style="rounded=1;whiteSpace=wrap;html=1;strokeColor=#006EAF;fillColor=none;dashed=1;fontColor=#ffffff;strokeWidth=2;" vertex="1" parent="1">
                    <mxGeometry x="30" y="340" width="80" height="60" as="geometry"/>
                </mxCell>
            </root>
        </mxGraphModel>
    </diagram>
    <diagram name="After Login" id="uFW-QHKj9lrslyT1C-xP">
        <mxGraphModel dx="2571" dy="807" grid="1" gridSize="10" guides="1" tooltips="1" connect="1" arrows="1" fold="1" page="1" pageScale="1" pageWidth="827" pageHeight="1169" math="0" shadow="0">
            <root>
                <mxCell id="6rF_11yRFb2CChP4Dicz-0"/>
                <mxCell id="6rF_11yRFb2CChP4Dicz-1" parent="6rF_11yRFb2CChP4Dicz-0"/>
                <mxCell id="6rF_11yRFb2CChP4Dicz-2" value="" style="rounded=0;whiteSpace=wrap;html=1;" vertex="1" parent="6rF_11yRFb2CChP4Dicz-1">
                    <mxGeometry x="100" y="160" width="200" height="520" as="geometry"/>
                </mxCell>
                <mxCell id="6rF_11yRFb2CChP4Dicz-3" value="" style="rounded=0;whiteSpace=wrap;html=1;" vertex="1" parent="6rF_11yRFb2CChP4Dicz-1">
                    <mxGeometry x="40" y="160" width="60" height="520" as="geometry"/>
                </mxCell>
                <mxCell id="6rF_11yRFb2CChP4Dicz-4" value="" style="rounded=0;whiteSpace=wrap;html=1;" vertex="1" parent="6rF_11yRFb2CChP4Dicz-1">
                    <mxGeometry x="300" y="540" width="510" height="140" as="geometry"/>
                </mxCell>
                <mxCell id="6rF_11yRFb2CChP4Dicz-5" value="" style="rounded=0;whiteSpace=wrap;html=1;" vertex="1" parent="6rF_11yRFb2CChP4Dicz-1">
                    <mxGeometry x="300" y="160" width="510" height="380" as="geometry"/>
                </mxCell>
                <mxCell id="6rF_11yRFb2CChP4Dicz-6" value="" style="rounded=0;whiteSpace=wrap;html=1;" vertex="1" parent="6rF_11yRFb2CChP4Dicz-1">
                    <mxGeometry x="40" y="130" width="770" height="30" as="geometry"/>
                </mxCell>
                <mxCell id="6rF_11yRFb2CChP4Dicz-7" value="" style="rounded=0;whiteSpace=wrap;html=1;" vertex="1" parent="6rF_11yRFb2CChP4Dicz-1">
                    <mxGeometry x="40" y="680" width="770" height="30" as="geometry"/>
                </mxCell>
                <mxCell id="6rF_11yRFb2CChP4Dicz-8" value="" style="rounded=0;whiteSpace=wrap;html=1;strokeColor=default;" vertex="1" parent="6rF_11yRFb2CChP4Dicz-1">
                    <mxGeometry x="300" y="160" width="90" height="30" as="geometry"/>
                </mxCell>
                <mxCell id="6rF_11yRFb2CChP4Dicz-9" value="" style="rounded=0;whiteSpace=wrap;html=1;" vertex="1" parent="6rF_11yRFb2CChP4Dicz-1">
                    <mxGeometry x="390" y="160" width="90" height="30" as="geometry"/>
                </mxCell>
                <mxCell id="6rF_11yRFb2CChP4Dicz-10" value="" style="rounded=0;whiteSpace=wrap;html=1;" vertex="1" parent="6rF_11yRFb2CChP4Dicz-1">
                    <mxGeometry x="480" y="160" width="90" height="30" as="geometry"/>
                </mxCell>
                <mxCell id="6rF_11yRFb2CChP4Dicz-11" value="" style="rounded=0;whiteSpace=wrap;html=1;" vertex="1" parent="6rF_11yRFb2CChP4Dicz-1">
                    <mxGeometry x="570" y="160" width="240" height="30" as="geometry"/>
                </mxCell>
                <mxCell id="6rF_11yRFb2CChP4Dicz-12" value="" style="ellipse;whiteSpace=wrap;html=1;aspect=fixed;strokeColor=default;" vertex="1" parent="6rF_11yRFb2CChP4Dicz-1">
                    <mxGeometry x="50" y="170" width="40" height="40" as="geometry"/>
                </mxCell>
                <mxCell id="6rF_11yRFb2CChP4Dicz-13" value="" style="ellipse;whiteSpace=wrap;html=1;aspect=fixed;strokeColor=default;" vertex="1" parent="6rF_11yRFb2CChP4Dicz-1">
                    <mxGeometry x="50" y="230" width="40" height="40" as="geometry"/>
                </mxCell>
                <mxCell id="6rF_11yRFb2CChP4Dicz-14" value="" style="ellipse;whiteSpace=wrap;html=1;aspect=fixed;strokeColor=default;" vertex="1" parent="6rF_11yRFb2CChP4Dicz-1">
                    <mxGeometry x="50" y="290" width="40" height="40" as="geometry"/>
                </mxCell>
                <mxCell id="6rF_11yRFb2CChP4Dicz-15" value="" style="ellipse;whiteSpace=wrap;html=1;aspect=fixed;strokeColor=default;" vertex="1" parent="6rF_11yRFb2CChP4Dicz-1">
                    <mxGeometry x="50" y="350" width="40" height="40" as="geometry"/>
                </mxCell>
                <mxCell id="6rF_11yRFb2CChP4Dicz-16" value="&amp;nbsp; △&amp;nbsp; PROFILE" style="rounded=0;whiteSpace=wrap;html=1;strokeColor=default;align=left;" vertex="1" parent="6rF_11yRFb2CChP4Dicz-1">
                    <mxGeometry x="100" y="160" width="200" height="30" as="geometry"/>
                </mxCell>
                <mxCell id="6rF_11yRFb2CChP4Dicz-17" value="" style="rounded=0;whiteSpace=wrap;html=1;strokeColor=default;" vertex="1" parent="6rF_11yRFb2CChP4Dicz-1">
                    <mxGeometry x="100" y="190" width="200" height="320" as="geometry"/>
                </mxCell>
                <mxCell id="6rF_11yRFb2CChP4Dicz-18" value="&lt;span&gt;&amp;nbsp;&lt;/span&gt;△&amp;nbsp;&amp;nbsp;&lt;span&gt;Daily Challenge&lt;/span&gt;" style="rounded=0;whiteSpace=wrap;html=1;strokeColor=default;align=left;" vertex="1" parent="6rF_11yRFb2CChP4Dicz-1">
                    <mxGeometry x="100" y="510" width="200" height="30" as="geometry"/>
                </mxCell>
                <mxCell id="6rF_11yRFb2CChP4Dicz-19" value="Logout" style="rounded=0;whiteSpace=wrap;html=1;strokeColor=#006EAF;fillColor=#1ba1e2;fontColor=#ffffff;" vertex="1" parent="6rF_11yRFb2CChP4Dicz-1">
                    <mxGeometry x="127.5" y="390" width="145" height="30" as="geometry"/>
                </mxCell>
                <mxCell id="HXEzPM0zMYwe8a3jwFSn-0" value="Hi, GwangrokBaek!" style="text;html=1;strokeColor=none;fillColor=none;align=center;verticalAlign=middle;whiteSpace=wrap;rounded=0;" vertex="1" parent="6rF_11yRFb2CChP4Dicz-1">
                    <mxGeometry x="110" y="200" width="120" height="30" as="geometry"/>
                </mxCell>
                <mxCell id="HXEzPM0zMYwe8a3jwFSn-9" value="Statistics" style="whiteSpace=wrap;html=1;aspect=fixed;strokeColor=default;" vertex="1" parent="6rF_11yRFb2CChP4Dicz-1">
                    <mxGeometry x="140" y="250" width="120" height="120" as="geometry"/>
                </mxCell>
                <mxCell id="xJPRtiqNaAZXW4HC7p8x-0" value="" style="whiteSpace=wrap;html=1;aspect=fixed;strokeColor=default;" vertex="1" parent="6rF_11yRFb2CChP4Dicz-1">
                    <mxGeometry x="240" y="540" width="20" height="20" as="geometry"/>
                </mxCell>
                <mxCell id="xJPRtiqNaAZXW4HC7p8x-1" value="" style="whiteSpace=wrap;html=1;aspect=fixed;strokeColor=default;" vertex="1" parent="6rF_11yRFb2CChP4Dicz-1">
                    <mxGeometry x="260" y="540" width="20" height="20" as="geometry"/>
                </mxCell>
                <mxCell id="xJPRtiqNaAZXW4HC7p8x-2" value="" style="whiteSpace=wrap;html=1;aspect=fixed;strokeColor=default;" vertex="1" parent="6rF_11yRFb2CChP4Dicz-1">
                    <mxGeometry x="280" y="540" width="20" height="20" as="geometry"/>
                </mxCell>
                <mxCell id="xJPRtiqNaAZXW4HC7p8x-3" value="" style="curved=1;endArrow=classic;html=1;entryX=0.216;entryY=0.763;entryDx=0;entryDy=0;entryPerimeter=0;" edge="1" parent="6rF_11yRFb2CChP4Dicz-1" source="xJPRtiqNaAZXW4HC7p8x-2" target="6rF_11yRFb2CChP4Dicz-5">
                    <mxGeometry width="50" height="50" relative="1" as="geometry">
                        <mxPoint x="400" y="410" as="sourcePoint"/>
                        <mxPoint x="450" y="360" as="targetPoint"/>
                        <Array as="points">
                            <mxPoint x="400" y="500"/>
                            <mxPoint x="360" y="450"/>
                        </Array>
                    </mxGeometry>
                </mxCell>
                <mxCell id="xJPRtiqNaAZXW4HC7p8x-4" value="Difficulty Filter" style="text;html=1;strokeColor=none;fillColor=none;align=center;verticalAlign=middle;whiteSpace=wrap;rounded=0;" vertex="1" parent="6rF_11yRFb2CChP4Dicz-1">
                    <mxGeometry x="400" y="430" width="120" height="30" as="geometry"/>
                </mxCell>
                <mxCell id="xJPRtiqNaAZXW4HC7p8x-5" value="&amp;nbsp; &amp;nbsp; &amp;nbsp;P153. Dynamic Heap" style="rounded=0;whiteSpace=wrap;html=1;strokeColor=default;align=left;" vertex="1" parent="6rF_11yRFb2CChP4Dicz-1">
                    <mxGeometry x="100" y="560" width="200" height="30" as="geometry"/>
                </mxCell>
                <mxCell id="xJPRtiqNaAZXW4HC7p8x-6" value="&amp;nbsp; &amp;nbsp; &amp;nbsp;P50. Binary Search Tree" style="rounded=0;whiteSpace=wrap;html=1;strokeColor=default;align=left;" vertex="1" parent="6rF_11yRFb2CChP4Dicz-1">
                    <mxGeometry x="100" y="590" width="200" height="30" as="geometry"/>
                </mxCell>
                <mxCell id="xJPRtiqNaAZXW4HC7p8x-7" value="&amp;nbsp; &amp;nbsp; &amp;nbsp;P823. Queue" style="rounded=0;whiteSpace=wrap;html=1;strokeColor=default;align=left;" vertex="1" parent="6rF_11yRFb2CChP4Dicz-1">
                    <mxGeometry x="100" y="620" width="200" height="30" as="geometry"/>
                </mxCell>
                <mxCell id="xJPRtiqNaAZXW4HC7p8x-8" value="" style="whiteSpace=wrap;html=1;aspect=fixed;strokeColor=default;" vertex="1" parent="6rF_11yRFb2CChP4Dicz-1">
                    <mxGeometry x="100" y="540" width="20" height="20" as="geometry"/>
                </mxCell>
                <mxCell id="xJPRtiqNaAZXW4HC7p8x-9" value="" style="curved=1;endArrow=classic;html=1;exitX=0;exitY=0.5;exitDx=0;exitDy=0;" edge="1" parent="6rF_11yRFb2CChP4Dicz-1" source="xJPRtiqNaAZXW4HC7p8x-8">
                    <mxGeometry width="50" height="50" relative="1" as="geometry">
                        <mxPoint x="-140" y="560.0045454545455" as="sourcePoint"/>
                        <mxPoint x="-60" y="500" as="targetPoint"/>
                        <Array as="points">
                            <mxPoint x="-20" y="570"/>
                            <mxPoint x="-20" y="490"/>
                        </Array>
                    </mxGeometry>
                </mxCell>
                <mxCell id="xJPRtiqNaAZXW4HC7p8x-10" value="Refresh" style="text;html=1;strokeColor=none;fillColor=none;align=center;verticalAlign=middle;whiteSpace=wrap;rounded=0;" vertex="1" parent="6rF_11yRFb2CChP4Dicz-1">
                    <mxGeometry x="-150" y="490" width="120" height="30" as="geometry"/>
                </mxCell>
                <mxCell id="JKEadK9gaQrLtFto8l6H-1" value="" style="curved=1;endArrow=classic;html=1;exitX=0;exitY=0.5;exitDx=0;exitDy=0;" edge="1" parent="6rF_11yRFb2CChP4Dicz-1">
                    <mxGeometry width="50" height="50" relative="1" as="geometry">
                        <mxPoint x="100" y="640" as="sourcePoint"/>
                        <mxPoint x="-60" y="590" as="targetPoint"/>
                        <Array as="points">
                            <mxPoint x="-20" y="660"/>
                            <mxPoint x="-20" y="580"/>
                        </Array>
                    </mxGeometry>
                </mxCell>
                <mxCell id="JKEadK9gaQrLtFto8l6H-2" value="Open the web page" style="text;html=1;strokeColor=none;fillColor=none;align=center;verticalAlign=middle;whiteSpace=wrap;rounded=0;" vertex="1" parent="6rF_11yRFb2CChP4Dicz-1">
                    <mxGeometry x="-170" y="585" width="120" height="30" as="geometry"/>
                </mxCell>
                <mxCell id="JKEadK9gaQrLtFto8l6H-4" value="// prefix (A number of problem which is parsed by extension)&lt;br&gt;&lt;br&gt;Write your code here" style="text;html=1;strokeColor=none;fillColor=none;align=left;verticalAlign=top;whiteSpace=wrap;rounded=0;" vertex="1" parent="6rF_11yRFb2CChP4Dicz-1">
                    <mxGeometry x="320" y="210" width="470" height="230" as="geometry"/>
                </mxCell>
                <mxCell id="JKEadK9gaQrLtFto8l6H-5" value="Submit Result will be displayed here" style="text;html=1;strokeColor=none;fillColor=none;align=left;verticalAlign=top;whiteSpace=wrap;rounded=0;" vertex="1" parent="6rF_11yRFb2CChP4Dicz-1">
                    <mxGeometry x="310" y="550" width="490" height="120" as="geometry"/>
                </mxCell>
                <mxCell id="JKEadK9gaQrLtFto8l6H-6" value="" style="ellipse;whiteSpace=wrap;html=1;aspect=fixed;strokeColor=default;" vertex="1" parent="6rF_11yRFb2CChP4Dicz-1">
                    <mxGeometry x="50" y="685" width="20" height="20" as="geometry"/>
                </mxCell>
                <mxCell id="JKEadK9gaQrLtFto8l6H-7" value="" style="ellipse;whiteSpace=wrap;html=1;aspect=fixed;strokeColor=default;" vertex="1" parent="6rF_11yRFb2CChP4Dicz-1">
                    <mxGeometry x="80" y="685" width="20" height="20" as="geometry"/>
                </mxCell>
                <mxCell id="JKEadK9gaQrLtFto8l6H-8" value="" style="ellipse;whiteSpace=wrap;html=1;aspect=fixed;strokeColor=default;" vertex="1" parent="6rF_11yRFb2CChP4Dicz-1">
                    <mxGeometry x="107.5" y="685" width="20" height="20" as="geometry"/>
                </mxCell>
                <mxCell id="uil8A9pIljHvauW5TE-T-0" value="" style="curved=1;endArrow=classic;html=1;exitX=1;exitY=0.5;exitDx=0;exitDy=0;" edge="1" parent="6rF_11yRFb2CChP4Dicz-1" source="JKEadK9gaQrLtFto8l6H-8">
                    <mxGeometry width="50" height="50" relative="1" as="geometry">
                        <mxPoint x="199.84" y="765.5145454545454" as="sourcePoint"/>
                        <mxPoint x="270" y="740" as="targetPoint"/>
                        <Array as="points">
                            <mxPoint x="200" y="770"/>
                            <mxPoint x="250" y="740"/>
                        </Array>
                    </mxGeometry>
                </mxCell>
                <mxCell id="uil8A9pIljHvauW5TE-T-1" value="Sumbit Button" style="text;html=1;strokeColor=none;fillColor=none;align=center;verticalAlign=middle;whiteSpace=wrap;rounded=0;" vertex="1" parent="6rF_11yRFb2CChP4Dicz-1">
                    <mxGeometry x="260" y="730" width="120" height="30" as="geometry"/>
                </mxCell>
                <mxCell id="eQZsoPDehiwmNBjtaG00-0" value="" style="rounded=1;whiteSpace=wrap;html=1;strokeColor=#006EAF;fillColor=none;dashed=1;fontColor=#ffffff;strokeWidth=2;" vertex="1" parent="6rF_11yRFb2CChP4Dicz-1">
                    <mxGeometry x="30" y="340" width="80" height="60" as="geometry"/>
                </mxCell>
            </root>
        </mxGraphModel>
    </diagram>
</mxfile>